# xmcd
#
# Track frame offsets:
#       150
#       21007
#       33405
#       43730
#       55755
#       60745
#       70602
#       80979
#       95475
#       107247
#       120417
#       135612
#       147202
#       154720
#
# Disc length: 2432 seconds
#
# Revision: 0
# Processed by: cddbd v1.4PL0 Copyright (c) Steve Scherf et al.
# Submitted via: WhereIsIt 3.25
#
DISCID=bd097e0e
DTITLE=John Denver - All Aboard
DYEAR=1900
DGENRE=
TTITLE0=Jenny Dreamed Of Trains
TTITLE1=Medley (Freight Train Boogie, Choo Choo Ch'Boogie)
TTITLE2=Steel Rails
TTITLE3=Waiting For A Train
TTITLE4=I've Been Working On The Railroad
TTITLE5=On The Atchison, Topeka And The Santa Fe
TTITLE6=Old Train
TTITLE7=Daddy, What's A Train?
TTITLE8=The Little Engine That Could
TTITLE9=Last Train Done Gone Down
TTITLE10=Last Hobo
TTITLE11=People Get Ready
TTITLE12=Lining Track
TTITLE13=City Of New Orleans and Jesse Dreamed Of Trains
EXTD=
EXTT0=
EXTT1=
EXTT2=
EXTT3=
EXTT4=
EXTT5=
EXTT6=
EXTT7=
EXTT8=
EXTT9=
EXTT10=
EXTT11=
EXTT12=
EXTT13=
PLAYORDER=
